<?xml version="1.0" encoding="UTF-8"?>
<svg id="Camada_1" data-name="Camada 1" xmlns="http://www.w3.org/2000/svg" xmlns:xlink="http://www.w3.org/1999/xlink" viewBox="0 0 442.68 343.79">
  <defs>
    <style>
      .cls-1 {
        fill: #af6628;
      }

      .cls-1, .cls-2, .cls-3, .cls-4 {
        stroke-width: 0px;
      }

      .cls-2 {
        fill: #010101;
      }

      .cls-3 {
        fill: #ba6b2a;
      }

      .cls-5 {
        fill: url(#Gradiente_sem_nome_5);
        stroke: #1d1d1b;
        stroke-miterlimit: 10;
        stroke-width: 3px;
      }

      .cls-4 {
        fill: #af6528;
      }
    </style>
    <linearGradient id="Gradiente_sem_nome_5" data-name="Gradiente sem nome 5" x1="224.02" y1="314.19" x2="224.91" y2="36.04" gradientUnits="userSpaceOnUse">
      <stop offset="0" stop-color="#3062a4"/>
      <stop offset="1" stop-color="#6abeec"/>
    </linearGradient>
  </defs>
  <path class="cls-5" d="M393.54,20.57H55.44c-15.49,0-28.05,12.56-28.05,28.05v235.9c0,15.49,12.56,28.05,28.05,28.05h338.1c15.5,0,28.06-12.56,28.06-28.05V48.62c0-15.49-12.56-28.05-28.06-28.05ZM405.65,284c0,9.38-7.61,16.99-16.99,16.99H59.7c-9.38,0-16.99-7.61-16.99-16.99V49.14c0-9.38,7.61-16.99,16.99-16.99h328.96c9.38,0,16.99,7.61,16.99,16.99v234.86Z"/>
  <path class="cls-2" d="M127.8,311.51c-2.48-.73-8.68-.58-9.64-.67-.72-.07-1.34-.19-1.89-.35-1.77-.13-3.54-.3-5.31-.57-4.13-.62-8.99-1.42-12.36-4.07-1.17-.5-2.19-1.25-3.21-2.02-1.22-.67-2.49-1.37-3.69-2.29-.38-.13-.75-.31-1.11-.57-2.8-2.04-5.62-4.04-8.65-5.73-3.59-2-7.39-3.2-11.55-2.71-5.01.58-8.78,2.97-10.5,7.85-.45,1.26-1.03,1.39-2.11,1.39h-.04c.16.12.33.25.5.36,3.12.35,6.44,1.01,8.97,2.52,1.73.61,3.42,1.35,5.08,2.26,2.02,1.11,4.5,2.13,6.22,3.71.22.2.44.44.65.69,1.24.73,2.48,1.47,3.72,2.21.12.03.25.05.37.08,3.08.88,5.68,3.4,8.52,5.14,5,3.06,9.93,6.26,15.59,8.06,4.91,1.55,9.28.51,13.17-2.74,2.96-2.47,5.07-5.6,6.45-9.16.4-1.03.9-1.39,1.68-1.5-.33-.6-.66-1.29-.85-1.88Z"/>
  <path class="cls-1" d="M115.35,313.75c-1.48,3.47-3.3,6.65-5.37,9.71-.43.63-.91.65-1.59.42-1.7-.57-3.35-1.22-5.09-2.15,2.12-2.6,4.26-5.13,5.46-8.25.17-.46.54-.35.93-.3,1.83.21,3.67.37,5.66.57Z"/>
  <path class="cls-1" d="M101.31,320.8c-1.82-1.08-3.59-2.08-5.3-3.18-.54-.35.02-.78.25-1.08,1.29-1.73,2.62-3.43,3.91-5.17.43-.58.84-.74,1.56-.45,1.37.56,2.78,1.02,4.2,1.43.81.24,1.13.48.69,1.37-1.18,2.41-2.79,4.5-4.57,6.48-.19.21-.45.37-.73.59Z"/>
  <path class="cls-1" d="M123.69,314.43c-2.04,5.59-6.97,9.72-12,9.85,2.45-3.39,3.94-7.16,6.05-10.58,1.44.41,2.91.08,4.36.18.58.04,1.26-.21,1.59.55Z"/>
  <path class="cls-1" d="M80.15,298.37c-.08.14-.19.36-.33.56-1.19,1.72-2.39,3.44-3.6,5.15-.27.38-.54.89-1.18.55-1.36-.72-2.72-1.44-4.09-2.16-.55-.29-.42-.65-.16-1.06,1.05-1.67,2.09-3.34,3.14-5.01.25-.4.58-.65,1.07-.54,1.7.37,3.3,1,4.82,1.83.24.13.36.32.33.68Z"/>
  <path class="cls-4" d="M92.7,306.77c-.98,2.07-1.9,4.23-3.55,5.96-.25.27-.56.25-.84.08-1.41-.89-2.8-1.8-4.21-2.68-.61-.38-.24-.66.01-1.01,1.21-1.7,2.41-3.42,3.62-5.13.14-.2.26-.46.46-.56.54-.28,4.56,2.68,4.51,3.34Z"/>
  <path class="cls-4" d="M86.44,302.56c-.66.99-1.39,2.13-2.17,3.24-2.14,3.07-2.08,2.95-5.25,1.24-1.64-.89-1.73-1.58-.58-2.94,1.11-1.31,2.03-2.79,2.96-4.25.48-.75.93-.85,1.64-.34.9.65,1.85,1.23,2.76,1.86.34.24.77.45.64,1.18Z"/>
  <path class="cls-4" d="M98.73,310.14c-.18.27-.36.6-.59.89-1.08,1.42-2.25,2.78-3.24,4.26-.69,1.03-1.27.99-2.22.36-2.12-1.4-2.11-1.32-.74-3.5.78-1.25,1.44-2.57,2.09-3.9.33-.68.59-.97,1.35-.46.87.58,1.83,1,2.75,1.52.3.17.7.3.61.84Z"/>
  <path class="cls-4" d="M62.96,300.9c1.94-3.91,5.15-5.14,9.28-5.43-1.21,1.97-2.29,3.72-3.37,5.48-.27.44-.65.5-1.11.45-1.52-.16-3.03-.32-4.8-.51Z"/>
  <path class="cls-3" d="M123.69,314.43c-1.22-.67-2.55-.24-3.83-.38-.71-.07-1.5.28-2.12-.36,1.84-.08,3.68-.16,5.52-.25,1.05-.05.8.43.42.98Z"/>
  <path class="cls-2" d="M254.6,311.64c-2.48-.73-8.68-.58-9.64-.67-.72-.07-1.34-.19-1.89-.35-1.77-.13-3.54-.3-5.31-.57-4.13-.62-8.99-1.42-12.36-4.07-1.17-.5-2.19-1.25-3.21-2.02-1.22-.67-2.49-1.37-3.69-2.29-.38-.13-.75-.31-1.11-.57-2.8-2.04-5.62-4.04-8.65-5.73-3.59-2-7.39-3.2-11.55-2.71-5.01.58-8.78,2.97-10.5,7.85-.45,1.26-1.03,1.39-2.11,1.39h-.04c.16.12.33.25.5.36,3.12.35,6.44,1.01,8.97,2.52,1.73.61,3.42,1.35,5.08,2.26,2.02,1.11,4.5,2.13,6.22,3.71.22.2.44.44.65.69,1.24.73,2.48,1.47,3.72,2.21.12.03.25.05.37.08,3.08.88,5.68,3.4,8.52,5.14,5,3.06,9.93,6.26,15.59,8.06,4.91,1.55,9.28.51,13.17-2.74,2.96-2.47,5.07-5.6,6.45-9.16.4-1.03.9-1.39,1.68-1.5-.33-.6-.66-1.29-.85-1.88Z"/>
  <path class="cls-1" d="M242.15,313.88c-1.48,3.47-3.3,6.65-5.37,9.71-.43.63-.91.65-1.59.42-1.7-.57-3.35-1.22-5.09-2.15,2.12-2.6,4.26-5.13,5.46-8.25.17-.46.54-.35.93-.3,1.83.21,3.67.37,5.66.57Z"/>
  <path class="cls-1" d="M228.1,320.94c-1.82-1.08-3.59-2.08-5.3-3.18-.54-.35.02-.78.25-1.08,1.29-1.73,2.62-3.43,3.91-5.17.43-.58.84-.74,1.56-.45,1.37.56,2.78,1.02,4.2,1.43.81.24,1.13.48.69,1.37-1.18,2.41-2.79,4.5-4.57,6.48-.19.21-.45.37-.73.59Z"/>
  <path class="cls-1" d="M250.48,314.56c-2.04,5.59-6.97,9.72-12,9.85,2.45-3.39,3.94-7.16,6.05-10.58,1.44.41,2.91.08,4.36.18.58.04,1.26-.21,1.59.55Z"/>
  <path class="cls-1" d="M206.94,298.51c-.08.14-.19.36-.33.56-1.19,1.72-2.39,3.44-3.6,5.15-.27.38-.54.89-1.18.55-1.36-.72-2.72-1.44-4.09-2.16-.55-.29-.42-.65-.16-1.06,1.05-1.67,2.09-3.34,3.14-5.01.25-.4.58-.65,1.07-.54,1.7.37,3.3,1,4.82,1.83.24.13.36.32.33.68Z"/>
  <path class="cls-4" d="M219.49,306.9c-.98,2.07-1.9,4.23-3.55,5.96-.25.27-.56.25-.84.08-1.41-.89-2.8-1.8-4.21-2.68-.61-.38-.24-.66.01-1.01,1.21-1.7,2.41-3.42,3.62-5.13.14-.2.26-.46.46-.56.54-.28,4.56,2.68,4.51,3.34Z"/>
  <path class="cls-4" d="M213.23,302.7c-.66.99-1.39,2.13-2.17,3.24-2.14,3.07-2.08,2.95-5.25,1.24-1.64-.89-1.73-1.58-.58-2.94,1.11-1.31,2.03-2.79,2.96-4.25.48-.75.93-.85,1.64-.34.9.65,1.85,1.23,2.76,1.86.34.24.77.45.64,1.18Z"/>
  <path class="cls-4" d="M225.52,310.28c-.18.27-.36.6-.59.89-1.08,1.42-2.25,2.78-3.24,4.26-.69,1.03-1.27.99-2.22.36-2.12-1.4-2.11-1.32-.74-3.5.78-1.25,1.44-2.57,2.09-3.9.33-.68.59-.97,1.35-.46.87.58,1.83,1,2.75,1.52.3.17.7.3.61.84Z"/>
  <path class="cls-4" d="M189.75,301.03c1.94-3.91,5.15-5.14,9.28-5.43-1.21,1.97-2.29,3.72-3.37,5.48-.27.44-.65.5-1.11.45-1.52-.16-3.03-.32-4.8-.51Z"/>
  <path class="cls-3" d="M250.48,314.56c-1.22-.67-2.55-.24-3.83-.38-.71-.07-1.5.28-2.12-.36,1.84-.08,3.68-.16,5.52-.25,1.05-.05.8.43.42.98Z"/>
  <path class="cls-2" d="M384.87,311.51c-2.48-.73-8.68-.58-9.64-.67-.72-.07-1.34-.19-1.89-.35-1.77-.13-3.54-.3-5.31-.57-4.13-.62-8.99-1.42-12.36-4.07-1.17-.5-2.19-1.25-3.21-2.02-1.22-.67-2.49-1.37-3.69-2.29-.38-.13-.75-.31-1.11-.57-2.8-2.04-5.62-4.04-8.65-5.73-3.59-2-7.39-3.2-11.55-2.71-5.01.58-8.78,2.97-10.5,7.85-.45,1.26-1.03,1.39-2.11,1.39h-.04c.16.12.33.25.5.36,3.12.35,6.44,1.01,8.97,2.52,1.73.61,3.42,1.35,5.08,2.26,2.02,1.11,4.5,2.13,6.22,3.71.22.2.44.44.65.69,1.24.73,2.48,1.47,3.72,2.21.12.03.25.05.37.08,3.08.88,5.68,3.4,8.52,5.14,5,3.06,9.93,6.26,15.59,8.06,4.91,1.55,9.28.51,13.17-2.74,2.96-2.47,5.07-5.6,6.45-9.16.4-1.03.9-1.39,1.68-1.5-.33-.6-.66-1.29-.85-1.88Z"/>
  <path class="cls-1" d="M372.43,313.75c-1.48,3.47-3.3,6.65-5.37,9.71-.43.63-.91.65-1.59.42-1.7-.57-3.35-1.22-5.09-2.15,2.12-2.6,4.26-5.13,5.46-8.25.17-.46.54-.35.93-.3,1.83.21,3.67.37,5.66.57Z"/>
  <path class="cls-1" d="M358.38,320.8c-1.82-1.08-3.59-2.08-5.3-3.18-.54-.35.02-.78.25-1.08,1.29-1.73,2.62-3.43,3.91-5.17.43-.58.84-.74,1.56-.45,1.37.56,2.78,1.02,4.2,1.43.81.24,1.13.48.69,1.37-1.18,2.41-2.79,4.5-4.57,6.48-.19.21-.45.37-.73.59Z"/>
  <path class="cls-1" d="M380.76,314.43c-2.04,5.59-6.97,9.72-12,9.85,2.45-3.39,3.94-7.16,6.05-10.58,1.44.41,2.91.08,4.36.18.58.04,1.26-.21,1.59.55Z"/>
  <path class="cls-1" d="M337.22,298.37c-.08.14-.19.36-.33.56-1.19,1.72-2.39,3.44-3.6,5.15-.27.38-.54.89-1.18.55-1.36-.72-2.72-1.44-4.09-2.16-.55-.29-.42-.65-.16-1.06,1.05-1.67,2.09-3.34,3.14-5.01.25-.4.58-.65,1.07-.54,1.7.37,3.3,1,4.82,1.83.24.13.36.32.33.68Z"/>
  <path class="cls-4" d="M349.77,306.77c-.98,2.07-1.9,4.23-3.55,5.96-.25.27-.56.25-.84.08-1.41-.89-2.8-1.8-4.21-2.68-.61-.38-.24-.66.01-1.01,1.21-1.7,2.41-3.42,3.62-5.13.14-.2.26-.46.46-.56.54-.28,4.56,2.68,4.51,3.34Z"/>
  <path class="cls-4" d="M343.51,302.56c-.66.99-1.39,2.13-2.17,3.24-2.14,3.07-2.08,2.95-5.25,1.24-1.64-.89-1.73-1.58-.58-2.94,1.11-1.31,2.03-2.79,2.96-4.25.48-.75.93-.85,1.64-.34.9.65,1.85,1.23,2.76,1.86.34.24.77.45.64,1.18Z"/>
  <path class="cls-4" d="M355.8,310.14c-.18.27-.36.6-.59.89-1.08,1.42-2.25,2.78-3.24,4.26-.69,1.03-1.27.99-2.22.36-2.12-1.4-2.11-1.32-.74-3.5.78-1.25,1.44-2.57,2.09-3.9.33-.68.59-.97,1.35-.46.87.58,1.83,1,2.75,1.52.3.17.7.3.61.84Z"/>
  <path class="cls-4" d="M320.03,300.9c1.94-3.91,5.15-5.14,9.28-5.43-1.21,1.97-2.29,3.72-3.37,5.48-.27.44-.65.5-1.11.45-1.52-.16-3.03-.32-4.8-.51Z"/>
  <path class="cls-3" d="M380.76,314.43c-1.22-.67-2.55-.24-3.83-.38-.71-.07-1.5.28-2.12-.36,1.84-.08,3.68-.16,5.52-.25,1.05-.05.8.43.42.98Z"/>
  <path class="cls-2" d="M122.84,31.62c-2.48-.73-8.68-.58-9.64-.67-.72-.07-1.34-.19-1.89-.35-1.77-.13-3.54-.3-5.31-.57-4.13-.62-8.99-1.42-12.36-4.07-1.17-.5-2.19-1.25-3.21-2.02-1.22-.67-2.49-1.37-3.69-2.29-.38-.13-.75-.31-1.11-.57-2.8-2.04-5.62-4.04-8.65-5.73-3.59-2-7.39-3.2-11.55-2.71-5.01.58-8.78,2.97-10.5,7.85-.45,1.26-1.03,1.39-2.11,1.39h-.04c.16.12.33.25.5.36,3.12.35,6.44,1.01,8.97,2.52,1.73.61,3.42,1.35,5.08,2.26,2.02,1.11,4.5,2.13,6.22,3.71.22.2.44.44.65.69,1.24.73,2.48,1.47,3.72,2.21.12.03.25.05.37.08,3.08.88,5.68,3.4,8.52,5.14,5,3.06,9.93,6.26,15.59,8.06,4.91,1.55,9.28.51,13.17-2.74,2.96-2.47,5.07-5.6,6.45-9.16.4-1.03.9-1.39,1.68-1.5-.33-.6-.66-1.29-.85-1.88Z"/>
  <path class="cls-1" d="M110.39,33.86c-1.48,3.47-3.3,6.65-5.37,9.71-.43.63-.91.65-1.59.42-1.7-.57-3.35-1.22-5.09-2.15,2.12-2.6,4.26-5.13,5.46-8.25.17-.46.54-.35.93-.3,1.83.21,3.67.37,5.66.57Z"/>
  <path class="cls-1" d="M96.35,40.91c-1.82-1.08-3.59-2.08-5.3-3.18-.54-.35.02-.78.25-1.08,1.29-1.73,2.62-3.43,3.91-5.17.43-.58.84-.74,1.56-.45,1.37.56,2.78,1.02,4.2,1.43.81.24,1.13.48.69,1.37-1.18,2.41-2.79,4.5-4.57,6.48-.19.21-.45.37-.73.59Z"/>
  <path class="cls-1" d="M118.73,34.53c-2.04,5.59-6.97,9.72-12,9.85,2.45-3.39,3.94-7.16,6.05-10.58,1.44.41,2.91.08,4.36.18.58.04,1.26-.21,1.59.55Z"/>
  <path class="cls-1" d="M75.19,18.48c-.08.14-.19.36-.33.56-1.19,1.72-2.39,3.44-3.6,5.15-.27.38-.54.89-1.18.55-1.36-.72-2.72-1.44-4.09-2.16-.55-.29-.42-.65-.16-1.06,1.05-1.67,2.09-3.34,3.14-5.01.25-.4.58-.65,1.07-.54,1.7.37,3.3,1,4.82,1.83.24.13.36.32.33.68Z"/>
  <path class="cls-4" d="M87.74,26.88c-.98,2.07-1.9,4.23-3.55,5.96-.25.27-.56.25-.84.08-1.41-.89-2.8-1.8-4.21-2.68-.61-.38-.24-.66.01-1.01,1.21-1.7,2.41-3.42,3.62-5.13.14-.2.26-.46.46-.56.54-.28,4.56,2.68,4.51,3.34Z"/>
  <path class="cls-4" d="M81.48,22.67c-.66.99-1.39,2.13-2.17,3.24-2.14,3.07-2.08,2.95-5.25,1.24-1.64-.89-1.73-1.58-.58-2.94,1.11-1.31,2.03-2.79,2.96-4.25.48-.75.93-.85,1.64-.34.9.65,1.85,1.23,2.76,1.86.34.24.77.45.64,1.18Z"/>
  <path class="cls-4" d="M93.77,30.25c-.18.27-.36.6-.59.89-1.08,1.42-2.25,2.78-3.24,4.26-.69,1.03-1.27.99-2.22.36-2.12-1.4-2.11-1.32-.74-3.5.78-1.25,1.44-2.57,2.09-3.9.33-.68.59-.97,1.35-.46.87.58,1.83,1,2.75,1.52.3.17.7.3.61.84Z"/>
  <path class="cls-4" d="M58,21c1.94-3.91,5.15-5.14,9.28-5.43-1.21,1.97-2.29,3.72-3.37,5.48-.27.44-.65.5-1.11.45-1.52-.16-3.03-.32-4.8-.51Z"/>
  <path class="cls-3" d="M118.73,34.53c-1.22-.67-2.55-.24-3.83-.38-.71-.07-1.5.28-2.12-.36,1.84-.08,3.68-.16,5.52-.25,1.05-.05.8.43.42.98Z"/>
  <path class="cls-2" d="M260.14,31.62c-2.48-.73-8.68-.58-9.64-.67-.72-.07-1.34-.19-1.89-.35-1.77-.13-3.54-.3-5.31-.57-4.13-.62-8.99-1.42-12.36-4.07-1.17-.5-2.19-1.25-3.21-2.02-1.22-.67-2.49-1.37-3.69-2.29-.38-.13-.75-.31-1.11-.57-2.8-2.04-5.62-4.04-8.65-5.73-3.59-2-7.39-3.2-11.55-2.71-5.01.58-8.78,2.97-10.5,7.85-.45,1.26-1.03,1.39-2.11,1.39h-.04c.16.12.33.25.5.36,3.12.35,6.44,1.01,8.97,2.52,1.73.61,3.42,1.35,5.08,2.26,2.02,1.11,4.5,2.13,6.22,3.71.22.2.44.44.65.69,1.24.73,2.48,1.47,3.72,2.21.12.03.25.05.37.08,3.08.88,5.68,3.4,8.52,5.14,5,3.06,9.93,6.26,15.59,8.06,4.91,1.55,9.28.51,13.17-2.74,2.96-2.47,5.07-5.6,6.45-9.16.4-1.03.9-1.39,1.68-1.5-.33-.6-.66-1.29-.85-1.88Z"/>
  <path class="cls-1" d="M247.7,33.86c-1.48,3.47-3.3,6.65-5.37,9.71-.43.63-.91.65-1.59.42-1.7-.57-3.35-1.22-5.09-2.15,2.12-2.6,4.26-5.13,5.46-8.25.17-.46.54-.35.93-.3,1.83.21,3.67.37,5.66.57Z"/>
  <path class="cls-1" d="M233.65,40.91c-1.82-1.08-3.59-2.08-5.3-3.18-.54-.35.02-.78.25-1.08,1.29-1.73,2.62-3.43,3.91-5.17.43-.58.84-.74,1.56-.45,1.37.56,2.78,1.02,4.2,1.43.81.24,1.13.48.69,1.37-1.18,2.41-2.79,4.5-4.57,6.48-.19.21-.45.37-.73.59Z"/>
  <path class="cls-1" d="M256.03,34.53c-2.04,5.59-6.97,9.72-12,9.85,2.45-3.39,3.94-7.16,6.05-10.58,1.44.41,2.91.08,4.36.18.58.04,1.26-.21,1.59.55Z"/>
  <path class="cls-1" d="M212.49,18.48c-.08.14-.19.36-.33.56-1.19,1.72-2.39,3.44-3.6,5.15-.27.38-.54.89-1.18.55-1.36-.72-2.72-1.44-4.09-2.16-.55-.29-.42-.65-.16-1.06,1.05-1.67,2.09-3.34,3.14-5.01.25-.4.58-.65,1.07-.54,1.7.37,3.3,1,4.82,1.83.24.13.36.32.33.68Z"/>
  <path class="cls-4" d="M225.04,26.88c-.98,2.07-1.9,4.23-3.55,5.96-.25.27-.56.25-.84.08-1.41-.89-2.8-1.8-4.21-2.68-.61-.38-.24-.66.01-1.01,1.21-1.7,2.41-3.42,3.62-5.13.14-.2.26-.46.46-.56.54-.28,4.56,2.68,4.51,3.34Z"/>
  <path class="cls-4" d="M218.78,22.67c-.66.99-1.39,2.13-2.17,3.24-2.14,3.07-2.08,2.95-5.25,1.24-1.64-.89-1.73-1.58-.58-2.94,1.11-1.31,2.03-2.79,2.96-4.25.48-.75.93-.85,1.64-.34.9.65,1.85,1.23,2.76,1.86.34.24.77.45.64,1.18Z"/>
  <path class="cls-4" d="M231.07,30.25c-.18.27-.36.6-.59.89-1.08,1.42-2.25,2.78-3.24,4.26-.69,1.03-1.27.99-2.22.36-2.12-1.4-2.11-1.32-.74-3.5.78-1.25,1.44-2.57,2.09-3.9.33-.68.59-.97,1.35-.46.87.58,1.83,1,2.75,1.52.3.17.7.3.61.84Z"/>
  <path class="cls-4" d="M195.3,21c1.94-3.91,5.15-5.14,9.28-5.43-1.21,1.97-2.29,3.72-3.37,5.48-.27.44-.65.5-1.11.45-1.52-.16-3.03-.32-4.8-.51Z"/>
  <path class="cls-3" d="M256.03,34.53c-1.22-.67-2.55-.24-3.83-.38-.71-.07-1.5.28-2.12-.36,1.84-.08,3.68-.16,5.52-.25,1.05-.05.8.43.42.98Z"/>
  <path class="cls-2" d="M384.87,31.62c-2.48-.73-8.68-.58-9.64-.67-.72-.07-1.34-.19-1.89-.35-1.77-.13-3.54-.3-5.31-.57-4.13-.62-8.99-1.42-12.36-4.07-1.17-.5-2.19-1.25-3.21-2.02-1.22-.67-2.49-1.37-3.69-2.29-.38-.13-.75-.31-1.11-.57-2.8-2.04-5.62-4.04-8.65-5.73-3.59-2-7.39-3.2-11.55-2.71-5.01.58-8.78,2.97-10.5,7.85-.45,1.26-1.03,1.39-2.11,1.39h-.04c.16.12.33.25.5.36,3.12.35,6.44,1.01,8.97,2.52,1.73.61,3.42,1.35,5.08,2.26,2.02,1.11,4.5,2.13,6.22,3.71.22.2.44.44.65.69,1.24.73,2.48,1.47,3.72,2.21.12.03.25.05.37.08,3.08.88,5.68,3.4,8.52,5.14,5,3.06,9.93,6.26,15.59,8.06,4.91,1.55,9.28.51,13.17-2.74,2.96-2.47,5.07-5.6,6.45-9.16.4-1.03.9-1.39,1.68-1.5-.33-.6-.66-1.29-.85-1.88Z"/>
  <path class="cls-1" d="M372.43,33.86c-1.48,3.47-3.3,6.65-5.37,9.71-.43.63-.91.65-1.59.42-1.7-.57-3.35-1.22-5.09-2.15,2.12-2.6,4.26-5.13,5.46-8.25.17-.46.54-.35.93-.3,1.83.21,3.67.37,5.66.57Z"/>
  <path class="cls-1" d="M358.38,40.91c-1.82-1.08-3.59-2.08-5.3-3.18-.54-.35.02-.78.25-1.08,1.29-1.73,2.62-3.43,3.91-5.17.43-.58.84-.74,1.56-.45,1.37.56,2.78,1.02,4.2,1.43.81.24,1.13.48.69,1.37-1.18,2.41-2.79,4.5-4.57,6.48-.19.21-.45.37-.73.59Z"/>
  <path class="cls-1" d="M380.76,34.53c-2.04,5.59-6.97,9.72-12,9.85,2.45-3.39,3.94-7.16,6.05-10.58,1.44.41,2.91.08,4.36.18.58.04,1.26-.21,1.59.55Z"/>
  <path class="cls-1" d="M337.22,18.48c-.08.14-.19.36-.33.56-1.19,1.72-2.39,3.44-3.6,5.15-.27.38-.54.89-1.18.55-1.36-.72-2.72-1.44-4.09-2.16-.55-.29-.42-.65-.16-1.06,1.05-1.67,2.09-3.34,3.14-5.01.25-.4.58-.65,1.07-.54,1.7.37,3.3,1,4.82,1.83.24.13.36.32.33.68Z"/>
  <path class="cls-4" d="M349.77,26.88c-.98,2.07-1.9,4.23-3.55,5.96-.25.27-.56.25-.84.08-1.41-.89-2.8-1.8-4.21-2.68-.61-.38-.24-.66.01-1.01,1.21-1.7,2.41-3.42,3.62-5.13.14-.2.26-.46.46-.56.54-.28,4.56,2.68,4.51,3.34Z"/>
  <path class="cls-4" d="M343.51,22.67c-.66.99-1.39,2.13-2.17,3.24-2.14,3.07-2.08,2.95-5.25,1.24-1.64-.89-1.73-1.58-.58-2.94,1.11-1.31,2.03-2.79,2.96-4.25.48-.75.93-.85,1.64-.34.9.65,1.85,1.23,2.76,1.86.34.24.77.45.64,1.18Z"/>
  <path class="cls-4" d="M355.8,30.25c-.18.27-.36.6-.59.89-1.08,1.42-2.25,2.78-3.24,4.26-.69,1.03-1.27.99-2.22.36-2.12-1.4-2.11-1.32-.74-3.5.78-1.25,1.44-2.57,2.09-3.9.33-.68.59-.97,1.35-.46.87.58,1.83,1,2.75,1.52.3.17.7.3.61.84Z"/>
  <path class="cls-4" d="M320.03,21c1.94-3.91,5.15-5.14,9.28-5.43-1.21,1.97-2.29,3.72-3.37,5.48-.27.44-.65.5-1.11.45-1.52-.16-3.03-.32-4.8-.51Z"/>
  <path class="cls-3" d="M380.76,34.53c-1.22-.67-2.55-.24-3.83-.38-.71-.07-1.5.28-2.12-.36,1.84-.08,3.68-.16,5.52-.25,1.05-.05.8.43.42.98Z"/>
  <path class="cls-2" d="M406.58,137.86c1.05-2.57.84-9.03.97-10.02.1-.75.27-1.39.5-1.96.19-1.84.44-3.68.83-5.52.91-4.29,2.07-9.35,5.91-12.85.73-1.21,1.82-2.27,2.94-3.34.98-1.27,1.99-2.59,3.33-3.84.19-.4.45-.78.83-1.15,2.96-2.91,5.87-5.85,8.33-9,2.9-3.73,4.64-7.68,3.94-12.01-.85-5.21-4.32-9.13-11.41-10.92-1.84-.46-2.02-1.07-2.02-2.2v-.04c-.18.17-.37.35-.53.52-.51,3.25-1.47,6.7-3.66,9.33-.88,1.8-1.96,3.56-3.28,5.28-1.62,2.1-3.09,4.68-5.39,6.46-.3.23-.64.46-1,.68-.41.69-.85,1.39-1.32,2.11-.49.76-.98,1.48-1.47,2.18-.71.69-1.74,1.73-2.88,3.07-2.22,2.62-3.56,4.81-4.23,5.89-5.41,8.75-7.03,8.92-9.16,14.28-1.92,4.83-1.73,7.52-1.66,8.2.11,1.23.42,4.58,2.82,7.3,3.42,3.88,11.03,6.37,12.7,6.7.28.06,1.38.26,1.93,1.1.12.19.2.41.25.65.88-.34,1.87-.69,2.74-.89Z"/>
  <path class="cls-1" d="M403.33,124.91c-6.4-2.55-11.02-4.39-12.25-4.8-.22-.07-.88-.29-1.09-.83-.16-.42.02-.85.19-1.22.71-1.54,1.53-2.77,1.92-3.39.28-.44.67-1.09,1.09-1.92,6.34,3.32,10.02,5.18,10.52,5.31.05.01.33.07.45.29.1.19.03.43,0,.68-.3,1.9-.54,3.81-.83,5.89Z"/>
  <path class="cls-1" d="M394.04,111.02c1.82-3.04,3.31-5.21,3.95-5.83.14-.14.46-.44.92-.48.47-.05.85.2,1.01.29,2.04,1.29,5.51,3.48,6.86,4.12.19.09.72.33.84.81.06.23,0,.49-.19.82-.81,1.42-1.48,2.89-2.08,4.37-.16.4-.32.68-.59.82-.48.26-1.08.03-1.41-.1-1.14-.48-4.65-2.28-9.3-4.8Z"/>
  <path class="cls-1" d="M402.34,133.58c-.92-.05-6.49-.43-10.13-5.07-2.02-2.59-2.52-5.31-2.67-6.66,2.02.85,4.07,1.7,6.16,2.54,2.6,1.05,5.17,2.05,7.71,3.02-.59,1.49-.11,3.02-.27,4.53-.06.6.31,1.31-.8,1.65Z"/>
  <path class="cls-1" d="M425.67,88.3c-.2-.08-.52-.2-.81-.34-2.5-1.24-5-2.48-7.48-3.74-.55-.28-1.29-.57-.8-1.23,1.05-1.42,2.1-2.83,3.14-4.25.42-.57.95-.44,1.54-.17,2.42,1.09,4.85,2.18,7.28,3.27.57.26.95.6.79,1.11-.54,1.76-1.45,3.43-2.66,5.01-.19.24-.46.37-.99.35Z"/>
  <path class="cls-4" d="M413.46,101.35c-3.01-1.02-6.15-1.98-8.67-3.69-.39-.26-.37-.58-.11-.87,1.29-1.46,2.61-2.91,3.89-4.38.55-.63.95-.25,1.47.01,2.48,1.26,4.97,2.51,7.46,3.76.29.15.67.27.82.48.41.57-3.9,4.74-4.86,4.69Z"/>
  <path class="cls-4" d="M419.58,94.85c-1.43-.69-3.09-1.45-4.7-2.25-4.45-2.22-4.29-2.17-1.81-5.46,1.29-1.71,2.29-1.8,4.27-.61,1.9,1.16,4.06,2.11,6.17,3.08,1.1.5,1.23.96.49,1.7-.94.94-1.78,1.93-2.7,2.87-.34.35-.65.8-1.71.66Z"/>
  <path class="cls-4" d="M408.56,107.63c-.4-.19-.87-.38-1.29-.61-2.06-1.13-4.04-2.34-6.19-3.37-1.5-.72-1.44-1.32-.52-2.31,2.03-2.2,1.92-2.19,5.09-.77,1.81.81,3.74,1.5,5.66,2.17.98.34,1.42.61.68,1.4-.84.9-1.46,1.91-2.2,2.86-.25.31-.44.73-1.22.63Z"/>
  <path class="cls-4" d="M422,70.42c5.68,2.02,7.47,5.36,7.89,9.65-2.86-1.26-5.41-2.39-7.97-3.5-.63-.28-.73-.68-.66-1.16.24-1.58.47-3.16.74-4.99Z"/>
  <path class="cls-3" d="M402.34,133.58c.97-1.27.35-2.66.55-3.98.11-.74-.4-1.56.52-2.2.12,1.91.23,3.83.36,5.74.07,1.09-.63.83-1.43.44Z"/>
  <path class="cls-2" d="M406.58,253.14c1.05-2.57.84-9.03.97-10.02.1-.75.27-1.39.5-1.96.19-1.84.44-3.68.83-5.52.91-4.29,2.07-9.35,5.91-12.85.73-1.21,1.82-2.27,2.94-3.34.98-1.27,1.99-2.59,3.33-3.84.19-.4.45-.78.83-1.15,2.96-2.91,5.87-5.85,8.33-9,2.9-3.73,4.64-7.68,3.94-12.01-.85-5.21-4.32-9.13-11.41-10.92-1.84-.46-2.02-1.07-2.02-2.2v-.04c-.18.17-.37.35-.53.52-.51,3.25-1.47,6.7-3.66,9.33-.88,1.8-1.96,3.56-3.28,5.28-1.62,2.1-3.09,4.68-5.39,6.46-.3.23-.64.46-1,.68-.41.69-.85,1.39-1.32,2.11-.49.76-.98,1.48-1.47,2.18-.71.69-1.74,1.73-2.88,3.07-2.22,2.62-3.56,4.81-4.23,5.89-5.41,8.75-7.03,8.92-9.16,14.28-1.92,4.83-1.73,7.52-1.66,8.2.11,1.23.42,4.58,2.82,7.3,3.42,3.88,11.03,6.37,12.7,6.7.28.06,1.38.26,1.93,1.1.12.19.2.41.25.65.88-.34,1.87-.69,2.74-.89Z"/>
  <path class="cls-1" d="M403.33,240.2c-6.4-2.55-11.02-4.39-12.25-4.8-.22-.07-.88-.29-1.09-.83-.16-.42.02-.85.19-1.22.71-1.54,1.53-2.77,1.92-3.39.28-.44.67-1.09,1.09-1.92,6.34,3.32,10.02,5.18,10.52,5.31.05.01.33.07.45.29.1.19.03.43,0,.68-.3,1.9-.54,3.81-.83,5.89Z"/>
  <path class="cls-1" d="M394.04,226.31c1.82-3.04,3.31-5.21,3.95-5.83.14-.14.46-.44.92-.48.47-.05.85.2,1.01.29,2.04,1.29,5.51,3.48,6.86,4.12.19.09.72.33.84.81.06.23,0,.49-.19.82-.81,1.42-1.48,2.89-2.08,4.37-.16.4-.32.68-.59.82-.48.26-1.08.03-1.41-.1-1.14-.48-4.65-2.28-9.3-4.8Z"/>
  <path class="cls-1" d="M402.34,248.86c-.92-.05-6.49-.43-10.13-5.07-2.02-2.59-2.52-5.31-2.67-6.66,2.02.85,4.07,1.7,6.16,2.54,2.6,1.05,5.17,2.05,7.71,3.02-.59,1.49-.11,3.02-.27,4.53-.06.6.31,1.31-.8,1.65Z"/>
  <path class="cls-1" d="M425.67,203.59c-.2-.08-.52-.2-.81-.34-2.5-1.24-5-2.48-7.48-3.74-.55-.28-1.29-.57-.8-1.23,1.05-1.42,2.1-2.83,3.14-4.25.42-.57.95-.44,1.54-.17,2.42,1.09,4.85,2.18,7.28,3.27.57.26.95.6.79,1.11-.54,1.76-1.45,3.43-2.66,5.01-.19.24-.46.37-.99.35Z"/>
  <path class="cls-4" d="M413.46,216.64c-3.01-1.02-6.15-1.98-8.67-3.69-.39-.26-.37-.58-.11-.87,1.29-1.46,2.61-2.91,3.89-4.38.55-.63.95-.25,1.47.01,2.48,1.26,4.97,2.51,7.46,3.76.29.15.67.27.82.48.41.57-3.9,4.74-4.86,4.69Z"/>
  <path class="cls-4" d="M419.58,210.13c-1.43-.69-3.09-1.45-4.7-2.25-4.45-2.22-4.29-2.17-1.81-5.46,1.29-1.71,2.29-1.8,4.27-.61,1.9,1.16,4.06,2.11,6.17,3.08,1.1.5,1.23.96.49,1.7-.94.94-1.78,1.93-2.7,2.87-.34.35-.65.8-1.71.66Z"/>
  <path class="cls-4" d="M408.56,222.91c-.4-.19-.87-.38-1.29-.61-2.06-1.13-4.04-2.34-6.19-3.37-1.5-.72-1.44-1.32-.52-2.31,2.03-2.2,1.92-2.19,5.09-.77,1.81.81,3.74,1.5,5.66,2.17.98.34,1.42.61.68,1.4-.84.9-1.46,1.91-2.2,2.86-.25.31-.44.73-1.22.63Z"/>
  <path class="cls-4" d="M422,185.71c5.68,2.02,7.47,5.36,7.89,9.65-2.86-1.26-5.41-2.39-7.97-3.5-.63-.28-.73-.68-.66-1.16.24-1.58.47-3.16.74-4.99Z"/>
  <path class="cls-3" d="M402.34,248.86c.97-1.27.35-2.66.55-3.98.11-.74-.4-1.56.52-2.2.12,1.91.23,3.83.36,5.74.07,1.09-.63.83-1.43.44Z"/>
  <path class="cls-2" d="M41.05,58.89c-1.05,2.57-.84,9.03-.97,10.02-.1.75-.27,1.39-.5,1.96-.19,1.84-.44,3.68-.83,5.52-.91,4.29-2.07,9.35-5.91,12.85-.73,1.21-1.82,2.27-2.94,3.34-.98,1.27-1.99,2.59-3.33,3.84-.19.4-.45.78-.83,1.15-2.96,2.91-5.87,5.85-8.33,9-2.9,3.73-4.64,7.68-3.94,12.01.85,5.21,4.32,9.13,11.41,10.92,1.84.46,2.02,1.07,2.02,2.2v.04c.18-.17.37-.35.53-.52.51-3.25,1.47-6.7,3.66-9.33.88-1.8,1.96-3.56,3.28-5.28,1.62-2.1,3.09-4.68,5.39-6.46.3-.23.64-.46,1-.68.41-.69.85-1.39,1.32-2.11.49-.76.98-1.48,1.47-2.18.71-.69,1.74-1.73,2.88-3.07,2.22-2.62,3.56-4.81,4.23-5.89,5.41-8.75,7.03-8.92,9.16-14.28,1.92-4.83,1.73-7.52,1.66-8.2-.11-1.23-.42-4.58-2.82-7.3-3.42-3.88-11.03-6.37-12.7-6.7-.28-.06-1.38-.26-1.93-1.1-.12-.19-.2-.41-.25-.65-.88.34-1.87.69-2.74.89Z"/>
  <path class="cls-1" d="M44.3,71.83c6.4,2.55,11.02,4.39,12.25,4.8.22.07.88.29,1.09.83.16.42-.02.85-.19,1.22-.71,1.54-1.53,2.77-1.92,3.39-.28.44-.67,1.09-1.09,1.92-6.34-3.32-10.02-5.18-10.52-5.31-.05-.01-.33-.07-.45-.29-.1-.19-.03-.43,0-.68.3-1.9.54-3.81.83-5.89Z"/>
  <path class="cls-1" d="M53.58,85.72c-1.82,3.04-3.31,5.21-3.95,5.83-.14.14-.46.44-.92.48-.47.05-.85-.2-1.01-.29-2.04-1.29-5.51-3.48-6.86-4.12-.19-.09-.72-.33-.84-.81-.06-.23,0-.49.19-.82.81-1.42,1.48-2.89,2.08-4.37.16-.4.32-.68.59-.82.48-.26,1.08-.03,1.41.1,1.14.48,4.65,2.28,9.3,4.8Z"/>
  <path class="cls-1" d="M45.29,63.17c.92.05,6.49.43,10.13,5.07,2.02,2.59,2.52,5.31,2.67,6.66-2.02-.85-4.07-1.7-6.16-2.54-2.6-1.05-5.17-2.05-7.71-3.02.59-1.49.11-3.02.27-4.53.06-.6-.31-1.31.8-1.65Z"/>
  <path class="cls-1" d="M21.96,108.44c.2.08.52.2.81.34,2.5,1.24,5,2.48,7.48,3.74.55.28,1.29.57.8,1.23-1.05,1.42-2.1,2.83-3.14,4.25-.42.57-.95.44-1.54.17-2.42-1.09-4.85-2.18-7.28-3.27-.57-.26-.95-.6-.79-1.11.54-1.76,1.45-3.43,2.66-5.01.19-.24.46-.37.99-.35Z"/>
  <path class="cls-4" d="M34.16,95.39c3.01,1.02,6.15,1.98,8.67,3.69.39.26.37.58.11.87-1.29,1.46-2.61,2.91-3.89,4.38-.55.63-.95.25-1.47-.01-2.48-1.26-4.97-2.51-7.46-3.76-.29-.15-.67-.27-.82-.48-.41-.57,3.9-4.74,4.86-4.69Z"/>
  <path class="cls-4" d="M28.05,101.9c1.43.69,3.09,1.45,4.7,2.25,4.45,2.22,4.29,2.17,1.81,5.46-1.29,1.71-2.29,1.8-4.27.61-1.9-1.16-4.06-2.11-6.17-3.08-1.1-.5-1.23-.96-.49-1.7.94-.94,1.78-1.93,2.7-2.87.34-.35.65-.8,1.71-.66Z"/>
  <path class="cls-4" d="M39.07,89.12c.4.19.87.38,1.29.61,2.06,1.13,4.04,2.34,6.19,3.37,1.5.72,1.44,1.32.52,2.31-2.03,2.2-1.92,2.19-5.09.77-1.81-.81-3.74-1.5-5.66-2.17-.98-.34-1.42-.61-.68-1.4.84-.9,1.46-1.91,2.2-2.86.25-.31.44-.73,1.22-.63Z"/>
  <path class="cls-4" d="M25.63,126.32c-5.68-2.02-7.47-5.36-7.89-9.65,2.86,1.26,5.41,2.39,7.97,3.5.63.28.73.68.66,1.16-.24,1.58-.47,3.16-.74,4.99Z"/>
  <path class="cls-3" d="M45.29,63.17c-.97,1.27-.35,2.66-.55,3.98-.11.74.4,1.56-.52,2.2-.12-1.91-.23-3.83-.36-5.74-.07-1.09.63-.83,1.43-.44Z"/>
  <path class="cls-2" d="M28.64,253.33c1.05-2.57.84-9.03.97-10.02.1-.75.27-1.39.5-1.96.19-1.84.44-3.68.83-5.52.91-4.29,2.07-9.35,5.91-12.85.73-1.21,1.82-2.27,2.94-3.34.98-1.27,1.99-2.59,3.33-3.84.19-.4.45-.78.83-1.15,2.96-2.91,5.87-5.85,8.33-9,2.9-3.73,4.64-7.68,3.94-12.01-.85-5.21-4.32-9.13-11.41-10.92-1.84-.46-2.02-1.07-2.02-2.2v-.04c-.18.17-.37.35-.53.52-.51,3.25-1.47,6.7-3.66,9.33-.88,1.8-1.96,3.56-3.28,5.28-1.62,2.1-3.09,4.68-5.39,6.46-.3.23-.64.46-1,.68-.41.69-.85,1.39-1.32,2.11-.49.76-.98,1.48-1.47,2.18-.71.69-1.74,1.73-2.88,3.07-2.22,2.62-3.56,4.81-4.23,5.89-5.41,8.75-7.03,8.92-9.16,14.28-1.92,4.83-1.73,7.52-1.66,8.2.11,1.23.42,4.58,2.82,7.3,3.42,3.88,11.03,6.37,12.7,6.7.28.06,1.38.26,1.93,1.1.12.19.2.41.25.65.88-.34,1.87-.69,2.74-.89Z"/>
  <path class="cls-1" d="M25.39,240.38c-6.4-2.55-11.02-4.39-12.25-4.8-.22-.07-.88-.29-1.09-.83-.16-.42.02-.85.19-1.22.71-1.54,1.53-2.77,1.92-3.39.28-.44.67-1.09,1.09-1.92,6.34,3.32,10.02,5.18,10.52,5.31.05.01.33.07.45.29.1.19.03.43,0,.68-.3,1.9-.54,3.81-.83,5.89Z"/>
  <path class="cls-1" d="M16.11,226.49c1.82-3.04,3.31-5.21,3.95-5.83.14-.14.46-.44.92-.48.47-.05.85.2,1.01.29,2.04,1.29,5.51,3.48,6.86,4.12.19.09.72.33.84.81.06.23,0,.49-.19.82-.81,1.42-1.48,2.89-2.08,4.37-.16.4-.32.68-.59.82-.48.26-1.08.03-1.41-.1-1.14-.48-4.65-2.28-9.3-4.8Z"/>
  <path class="cls-1" d="M24.4,249.05c-.92-.05-6.49-.43-10.13-5.07-2.02-2.59-2.52-5.31-2.67-6.66,2.02.85,4.07,1.7,6.16,2.54,2.6,1.05,5.17,2.05,7.71,3.02-.59,1.49-.11,3.02-.27,4.53-.06.6.31,1.31-.8,1.65Z"/>
  <path class="cls-1" d="M47.73,203.77c-.2-.08-.52-.2-.81-.34-2.5-1.24-5-2.48-7.48-3.74-.55-.28-1.29-.57-.8-1.23,1.05-1.42,2.1-2.83,3.14-4.25.42-.57.95-.44,1.54-.17,2.42,1.09,4.85,2.18,7.28,3.27.57.26.95.6.79,1.11-.54,1.76-1.45,3.43-2.66,5.01-.19.24-.46.37-.99.35Z"/>
  <path class="cls-4" d="M35.53,216.82c-3.01-1.02-6.15-1.98-8.67-3.69-.39-.26-.37-.58-.11-.87,1.29-1.46,2.61-2.91,3.89-4.38.55-.63.95-.25,1.47.01,2.48,1.26,4.97,2.51,7.46,3.76.29.15.67.27.82.48.41.57-3.9,4.74-4.86,4.69Z"/>
  <path class="cls-4" d="M41.64,210.32c-1.43-.69-3.09-1.45-4.7-2.25-4.45-2.22-4.29-2.17-1.81-5.46,1.29-1.71,2.29-1.8,4.27-.61,1.9,1.16,4.06,2.11,6.17,3.08,1.1.5,1.23.96.49,1.7-.94.94-1.78,1.93-2.7,2.87-.34.35-.65.8-1.71.66Z"/>
  <path class="cls-4" d="M30.62,223.1c-.4-.19-.87-.38-1.29-.61-2.06-1.13-4.04-2.34-6.19-3.37-1.5-.72-1.44-1.32-.52-2.31,2.03-2.2,1.92-2.19,5.09-.77,1.81.81,3.74,1.5,5.66,2.17.98.34,1.42.61.68,1.4-.84.9-1.46,1.91-2.2,2.86-.25.31-.44.73-1.22.63Z"/>
  <path class="cls-4" d="M44.06,185.89c5.68,2.02,7.47,5.36,7.89,9.65-2.86-1.26-5.41-2.39-7.97-3.5-.63-.28-.73-.68-.66-1.16.24-1.58.47-3.16.74-4.99Z"/>
  <path class="cls-3" d="M24.4,249.05c.97-1.27.35-2.66.55-3.98.11-.74-.4-1.56.52-2.2.12,1.91.23,3.83.36,5.74.07,1.09-.63.83-1.43.44Z"/>
</svg>